<svg width="146" height="43" viewBox="0 0 146 43" fill="none" xmlns="http://www.w3.org/2000/svg">
<g id="logotype-kset">
<path id="Vector" d="M72.8063 42.654H7.27892C3.13825 42.654 0 39.6297 0 35.6428C0 26.0913 0 16.5399 0 6.98276C0 3.03574 3.14964 0 7.25044 0H138.356C142.457 0 145.607 3.03004 145.607 6.98276C145.607 16.5513 145.607 26.1198 145.607 35.6884C145.607 39.6012 142.446 42.6483 138.379 42.6483H72.8063V42.654ZM72.8063 39.6411H138.277C140.771 39.6411 142.491 37.9723 142.491 35.5517V7.10236C142.491 4.68175 140.766 3.01295 138.271 3.01295H7.33587C4.84122 3.01295 3.11547 4.68175 3.11547 7.10236C3.11547 16.5855 3.11547 26.0686 3.11547 35.5517C3.11547 37.9723 4.84122 39.6411 7.33587 39.6411H72.8063Z" fill="#FF8C00"/>
<path id="Vector_2" d="M26.5488 34.9937V23.5001H32.962C29.2257 18.9778 25.5749 14.5695 21.8785 10.0928C18.1479 14.5866 14.4515 19.0462 10.6867 23.5855H17.7093V35.0051C17.6581 35.0393 17.6296 35.0735 17.6011 35.0735C15.4083 35.0507 13.2155 35.1133 11.0341 34.9766C8.69897 34.8343 7.3776 33.3876 7.3662 31.1265C7.33773 24.4683 7.33203 17.8102 7.33203 11.1521C7.33203 8.93087 8.75022 7.54115 11.0455 7.43294C11.1993 7.42724 11.3588 7.42725 11.5126 7.42725H31.9767C34.5967 7.42725 36.2711 9.04479 36.2711 11.585C36.2711 18.1577 36.2711 24.736 36.2711 31.3087C36.2711 33.3135 35.0295 34.6577 32.962 34.8969C32.6659 34.9311 32.3754 34.9823 32.0792 34.9823C30.268 34.9994 28.4398 34.9937 26.5488 34.9937Z" fill="#FF8C00"/>
<path id="Vector_3" d="M79.9417 35.3696C77.9938 35.3696 76.0403 35.3525 74.0924 35.3753C71.6205 35.398 69.5929 33.4843 69.1486 31.3713C69.0689 30.9954 69.029 30.6024 68.9151 30.2379C68.1747 27.9084 69.9175 25.9833 71.7173 25.4023C74.0981 24.6391 76.046 25.3966 77.7262 27.0085C78.1419 27.4072 78.5178 27.8685 78.814 28.3526C79.0874 28.7969 79.4006 29.0703 79.9417 29.0817C80.4942 29.0988 81.0524 29.1671 81.6048 29.1329C82.2655 29.0874 82.6129 28.7171 82.63 28.0792C82.6528 27.2021 82.4421 26.382 81.8099 25.7099C77.692 21.3357 73.5741 16.9615 69.4562 12.5816C68.2601 11.3115 68.357 9.52883 69.5473 8.24733C70.8459 6.84622 72.9191 6.91457 74.6164 7.59804C75.129 7.80877 75.6473 8.12772 76.0175 8.52071C80.6195 13.3562 85.2158 18.1975 89.7495 23.0899C90.3133 23.6937 90.5753 24.5879 90.8772 25.3796C91.5493 27.168 91.8625 29.0133 91.4012 30.9099C90.7804 33.4559 88.6787 35.1816 85.979 35.2784C83.9628 35.3468 81.9466 35.2898 79.9303 35.2898V35.3696H79.9417Z" fill="#FF8C00"/>
<path id="Vector_4" d="M45.5135 35.6258C43.97 35.603 42.8593 34.7316 41.9765 33.5982C41.4127 32.8748 41.4753 31.9635 41.8911 31.1946C42.3581 30.3232 42.9391 29.4974 43.5656 28.7228C49.0447 21.9678 54.5523 15.23 60.0485 8.48646C61.0623 7.24483 62.6742 6.73223 64.0867 7.30178C65.653 7.93399 66.7465 9.16423 66.644 10.8558C66.5984 11.5791 66.3307 12.2227 65.8751 12.798C60.1738 19.9003 54.484 27.0027 48.7827 34.1051C47.9683 35.1075 46.869 35.5631 45.5135 35.6258Z" fill="#FF8C00"/>
<path id="Vector_5" d="M93.9297 7.07983H101.334V7.64369C101.334 15.7599 101.334 23.876 101.334 31.9922C101.334 33.7863 100.434 35.0735 98.8165 35.3298C97.928 35.4722 96.9711 35.4209 96.0826 35.2614C94.9321 35.0564 94.1404 33.9742 94.0094 32.7041C93.9639 32.2371 93.9354 31.7701 93.9354 31.2973C93.9297 23.4489 93.9297 15.6004 93.9297 7.75761V7.07983Z" fill="#FF8C00"/>
<path id="Vector_6" d="M126.411 13.9086C123.643 13.9086 120.875 13.9086 118.107 13.9086C116.268 13.9029 114.764 12.684 114.582 11.0437C114.354 8.99899 115.396 7.50676 117.344 7.09668C117.543 7.05681 117.76 7.05112 117.965 7.05112C123.603 7.05112 129.242 7.04542 134.886 7.05112C136.823 7.05112 138.207 8.46361 138.298 10.3318C138.412 12.553 136.578 13.9826 134.556 13.9313C131.845 13.8573 129.128 13.9086 126.411 13.9086Z" fill="#FF8C00"/>
<path id="Vector_7" d="M122.949 15.7542H130.336V16.3066C130.336 21.3984 130.359 26.496 130.319 31.5935C130.314 32.3453 130.143 33.1427 129.847 33.8375C129.311 35.0792 127.984 35.6202 126.241 35.4722C125.945 35.4494 125.649 35.4266 125.364 35.3753C123.724 35.0621 122.932 34.0312 122.932 32.1801C122.927 26.8491 122.932 21.518 122.932 16.187C122.932 16.0503 122.944 15.9193 122.949 15.7542Z" fill="#FF8C00"/>
<path id="Vector_8" d="M41.961 27.0315C41.9496 26.7809 41.9325 26.6214 41.9325 26.4619C41.9325 21.1878 41.9211 15.9138 41.9439 10.6397C41.9439 10.11 42.0294 9.55752 42.2116 9.0677C42.616 7.97415 43.4988 7.43308 44.6721 7.35903C45.5891 7.30208 46.5061 7.31347 47.3889 7.64381C48.7159 8.13933 49.4791 9.16453 49.4791 10.5315C49.4848 12.9635 49.4905 15.4012 49.4678 17.8389C49.4678 18.0838 49.3766 18.3799 49.2172 18.5679C46.9389 21.2562 44.6493 23.9331 42.354 26.61C42.2572 26.7353 42.1376 26.8435 41.961 27.0315Z" fill="#FF8C00"/>
<path id="Vector_9" d="M55.0039 29.7312C55.0552 29.6344 55.0779 29.5831 55.1064 29.5432C56.7809 27.527 58.4497 25.5108 60.1755 23.4319C60.3406 23.6028 60.4944 23.7508 60.6368 23.9046C62.2259 25.619 63.8662 27.2935 65.3755 29.0705C66.2583 30.1071 66.6399 31.3886 66.321 32.7498C66.2298 33.1485 65.9678 33.5643 65.666 33.8548C65.0338 34.4642 64.3788 35.085 63.4504 35.3014C62.0835 35.6147 60.7963 35.3641 59.7996 34.4585C58.1422 32.9605 56.6101 31.3316 55.0039 29.7312Z" fill="#FF8C00"/>
<path id="Vector_10" d="M77.8313 7.26774C77.8997 7.26204 77.968 7.25065 78.0364 7.25065C81.3569 7.24496 84.6774 7.22787 87.9979 7.23357C89.7863 7.23357 91.1533 8.24738 91.4437 9.85922C91.6203 10.8673 91.6089 11.9096 91.0678 12.8494C90.5894 13.6866 89.8547 14.1878 88.8466 14.2163C87.5081 14.2448 86.1696 14.2505 84.8312 14.222C84.6034 14.2163 84.3357 14.017 84.1591 13.8404C82.2112 11.8754 80.2861 9.89338 78.3383 7.92842C78.1503 7.74046 77.894 7.61517 77.6719 7.45569C77.7231 7.39304 77.7801 7.33039 77.8313 7.26774Z" fill="#FF8C00"/>
<path id="Vector_11" d="M103.516 13.823V7.06805C104.222 7.06805 104.894 7.05666 105.572 7.06805C107.166 7.09083 108.773 7.04527 110.362 7.17058C111.751 7.27879 112.515 8.19007 112.594 9.52283C112.623 10.0753 112.691 10.6278 112.68 11.1802C112.651 12.4959 111.706 13.4926 110.231 13.692C109.393 13.8059 108.539 13.8059 107.685 13.8116C106.312 13.8344 104.945 13.823 103.516 13.823Z" fill="#FF8C00"/>
<path id="Vector_12" d="M103.648 17.115C105.87 17.115 108.062 17.0239 110.244 17.1435C111.793 17.2289 112.38 17.8497 112.625 19.342C112.756 20.1223 112.761 20.9538 112.653 21.7398C112.471 22.9871 111.594 23.682 109.936 23.756C107.857 23.8472 105.767 23.7788 103.648 23.7788V17.115Z" fill="#FF8C00"/>
<path id="Vector_13" d="M103.641 34.9197V28.1419C104.33 28.1419 105.002 28.1362 105.674 28.1419C107.223 28.1647 108.772 28.1476 110.31 28.2445C111.933 28.347 112.742 29.2355 112.788 30.8018C112.805 31.3087 112.828 31.8156 112.754 32.3111C112.548 33.6837 111.244 34.8285 109.752 34.8798C107.77 34.9481 105.788 34.9367 103.806 34.9595C103.766 34.9652 103.715 34.9367 103.641 34.9197Z" fill="#FF8C00"/>
</g>
</svg>
